<?xml version="1.0" encoding="utf-8"?>
<!-- Generator: Adobe Illustrator 24.3.0, SVG Export Plug-In . SVG Version: 6.00 Build 0)  -->
<svg version="1.1" id="Layer_1" xmlns="http://www.w3.org/2000/svg" xmlns:xlink="http://www.w3.org/1999/xlink" x="0px" y="0px"
	 width="315.9px" height="107.9px" viewBox="0 0 315.9 107.9" style="enable-background:new 0 0 315.9 107.9;" xml:space="preserve"
	>
<style type="text/css">
	.st0{fill:#2375BB;}
	.st1{fill:#333333;}
</style>
<g>
	<g>
		<path class="st0" d="M73.6,94.2c0.1,0.3,0.1,0.7,0.1,1.2c0.4-0.7,0.8-1.3,1.2-1.8c-0.2-0.2-0.3-0.5-0.4-0.8
			C74.3,93.5,73.9,93.9,73.6,94.2z"/>
		<path class="st0" d="M76.5,93.6c0.1,0.2,0.1,0.3,0.1,0.5c0.3-0.3,0.6-0.5,0.9-0.6c-0.1-0.2-0.2-0.5-0.2-0.8
			C77.1,93.1,76.8,93.4,76.5,93.6z"/>
		<path class="st0" d="M75.7,87.1c0.5-1,1-1.8,1.5-2.3c-0.5-0.3-0.8-1.1-0.9-2.1c-0.4,1.1-0.9,2.1-1.5,2.7
			C75.2,85.7,75.5,86.3,75.7,87.1z"/>
		<path class="st0" d="M77,71.4c-0.3,1.8-1.1,3.3-2.1,4c1,0.2,1.6,1.4,1.8,3c0.5-1.7,1.2-3.1,1.9-3.9C77.9,74.2,77.3,73,77,71.4z"/>
		<path class="st0" d="M82.5,29.9c-0.3-1.7-0.3-3.1,0-3.8c-0.8-0.6-1.9-1.7-2.8-3.1c0.4,1.6,0.3,2.9-0.4,3.4
			C80.4,26.8,81.6,28.1,82.5,29.9z"/>
		<path class="st0" d="M68.6,102.7c0.3,0.1,0.5,0.2,0.7,0.5c0.2-0.4,0.4-0.7,0.6-1l0,0c-0.3-0.1-0.4-0.4-0.5-0.9
			c-0.3,0.6-0.7,1-1,1.3C68.3,102.6,68.5,102.6,68.6,102.7z"/>
		<path class="st0" d="M79,51.2C79,51.2,78.9,51.2,79,51.2c1.3-0.1,2.6,1.4,3.2,3.6c0.2-1.8,0.8-3.4,1.4-4.4
			c-0.9-0.7-1.8-2.3-2.4-4.3C81.4,48.6,80.6,50.8,79,51.2z"/>
		<path class="st0" d="M85.7,41.9c-0.1-1.7,0.1-3.1,0.4-3.9c-0.7-0.7-1.5-2-2.2-3.5c0.2,1.5,0,2.8-0.5,3.5
			C84.3,38.6,85.1,40,85.7,41.9z"/>
		<path class="st0" d="M56.2,2.8c-0.8,1.1-3.6,0.3-6.4-1.7c-0.5-0.3-0.9-0.7-1.3-1.1h-40C3.8,0,0,3.8,0,8.5v90.9
			c0,4.7,3.8,8.5,8.5,8.5h29c0-0.1,0-0.2,0-0.4c0.5-1.8,2.6-2.8,4.7-2.1c1.4,0.4,2.5,1.4,2.9,2.5h7.1c0.4-1,1.3-1.8,2.3-2
			c0.9-0.2,1.8,0.1,2.5,0.7c0.1-0.3,0.3-0.6,0.5-0.8c-0.6,0.2-1.2,0.3-1.9,0.2c-2.2-0.4-3.7-2.6-3.3-4.9c0.4-2.3,2.5-3.9,4.7-3.5
			c1,0.2,1.8,0.7,2.4,1.5c0.1-2.5,1.5-4.5,3.3-4.6c1.5-0.1,2.9,1.1,3.5,2.8c0.2-0.4,0.4-0.7,0.6-0.9c-1.4-0.5-2.1-2.7-1.8-5
			c0.2-1.4,0.8-2.6,1.5-3.3c-1.9-0.4-3-2.9-2.6-5.6c0.4-2.8,2.3-4.7,4.2-4.4c1.2,0.2,2.2,1.4,2.5,2.9c0-0.2,0.1-0.5,0.1-0.7
			c0.4-1.9,1.3-3.5,2.2-4.3c-1.8-0.2-3.1-2.8-2.9-5.9c0.3-3.1,2-5.5,3.8-5.3c1.3,0.1,2.4,1.5,2.7,3.4c0.3-2.3,1.1-4.2,2-5.1
			c-1.4-0.6-2.6-2.8-2.9-5.6c-0.3-3.2,0.8-5.9,2.5-6.3c-1.8,0.1-3.7-2-4.4-5C73,43,73.9,40,75.8,39.5c1.7-0.4,3.6,1.3,4.5,4
			c-0.3-2.3,0-4.2,0.7-5.2c-1.2-0.6-2.6-2.3-3.5-4.6c0.6,2.4,0.2,4.6-1.2,5.3c-1.7,0.8-4.2-1-5.5-4.1c-1.3-2.9-1.1-5.9,0.3-7
			c-1.3-0.3-2.9-1.4-4.1-3.1c-2-2.7-2.4-5.8-1-7c0.1-0.1,0.2-0.1,0.3-0.1c-1-0.2-2.1-0.8-3.4-1.8c-2.1-1.7-3.4-4.7-2.7-6
			c0.7-1.4,2.7-1.3,5.3,0.4c0.1,0.1,0.2,0.1,0.3,0.2c-1.1-1.7-1.5-3.3-0.8-4c0.9-0.9,3.2-0.1,5.3,1.8c-0.7-1.1-1-2.1-1-2.6
			c-1-0.6-2.4-1.7-4-2.8c1,1.2,1.5,2.3,1.1,2.9c-0.6,0.9-3.3,0-5.9-1.9c-1.7-1.3-3-2.7-3.5-3.8h-1.5C56.3,1.2,56.6,2.2,56.2,2.8z
			 M46.2,7c0.7-1.4,3.1-1.4,5.4-0.2c2.3,1.3,3.7,3.4,3,4.8c-0.7,1.4-3.1,1.4-5.4,0.2S45.5,8.4,46.2,7z M48,39.7
			c2-0.9,4.4,0.4,5.3,2.8s0.1,5.1-1.9,6s-4.4-0.4-5.3-2.8S46,40.6,48,39.7z M42.9,35.9c-1-2.1-0.4-4.6,1.4-5.6s4,0,5,2.1
			s0.4,4.6-1.4,5.6C46.1,38.9,43.9,38,42.9,35.9z M47.2,23.5c-1.9-1.5-2.6-3.9-1.6-5.5c1-1.5,3.4-1.5,5.4,0c1.9,1.5,2.6,3.9,1.6,5.5
			C51.5,25,49.1,25,47.2,23.5z M39,10.1c0.7-1.4,2.9-1.7,4.9-0.6c2,1.1,3.1,3.2,2.4,4.6c-0.7,1.4-2.9,1.7-4.9,0.6
			C39.4,13.6,38.3,11.5,39,10.1z M22.2,8.5c0.3-1.1,2-1.5,3.7-1c1.7,0.6,2.8,1.9,2.5,3c-0.3,1.1-2,1.5-3.7,1S21.9,9.6,22.2,8.5z
			 M13.8,63c0.8-0.5,1.9,0,2.5,1.1c0.6,1.1,0.4,2.4-0.4,2.9c-0.8,0.5-1.9,0-2.5-1.1C12.9,64.8,13,63.5,13.8,63z M12,8.4
			c-1.2-0.3-1.9-1.2-1.8-1.9c0.2-0.8,1.3-1.1,2.4-0.8c1.2,0.3,1.9,1.2,1.8,1.9C14.3,8.4,13.2,8.7,12,8.4z M12.3,0.2
			C13.8,0.3,15,0.8,15,1.3s-1.3,0.9-2.8,0.8C10.7,2,9.5,1.5,9.5,1S10.8,0.1,12.3,0.2z M7.4,2.6c1.1,0,1.9,0.4,1.9,0.9
			s-0.9,0.9-2,0.9S5.4,4,5.4,3.5S6.3,2.6,7.4,2.6z M4.8,9.5c0.2-0.7,1-1,1.8-0.8s1.3,1,1.1,1.7s-1,1-1.8,0.8
			C5.1,10.9,4.6,10.2,4.8,9.5z M3.3,5.1C4,5.1,4.6,5.5,4.6,6S4,6.9,3.3,6.9S2,6.5,2,6S2.6,5.1,3.3,5.1z M1.6,19.1
			c0.2-0.5,0.8-0.7,1.3-0.5s0.6,0.9,0.4,1.4c-0.2,0.5-0.8,0.7-1.3,0.5C1.6,20.2,1.4,19.6,1.6,19.1z M1.3,52.5c0.2-0.6,0.7-1,1.2-0.8
			s0.8,0.8,0.6,1.4s-0.7,1-1.2,0.8C1.4,53.7,1.1,53.1,1.3,52.5z M2.4,81.6C1.8,82,0.9,81.7,0.3,81v-3.5c0.8-0.4,1.9,0.1,2.5,1.2
			C3.4,79.8,3.2,81.1,2.4,81.6z M7.5,104.7c-0.5,0.8-2,0.7-3.2-0.3c-1.2-0.9-1.8-2.3-1.3-3.1s2-0.7,3.2,0.3
			C7.4,102.5,8,103.9,7.5,104.7z M8.3,92.8C7.5,93.6,6,93.3,5,92s-1.1-2.8-0.3-3.6S7,87.9,8,89.2C9,90.3,9.2,92,8.3,92.8z M9.8,17.2
			c-0.8-0.2-1.3-1-1.1-1.7s1-1,1.8-0.8s1.3,1,1.1,1.7C11.4,17.1,10.6,17.4,9.8,17.2z M15.9,102.3c-0.7,1-2.4,1-3.9,0
			c-1.4-1.1-2-2.8-1.4-3.8c0.7-1,2.4-1,3.9,0S16.6,101.2,15.9,102.3z M18.1,89.1c-1,1.1-2.8,1-4.1-0.2c-1.3-1.3-1.6-3.2-0.6-4.3
			s2.8-1,4.1,0.2S19.1,87.9,18.1,89.1z M19.6,34.4c-0.5,1-1.5,1.4-2.4,0.9s-1.2-1.6-0.8-2.6c0.5-1,1.5-1.4,2.4-0.9
			C19.8,32.3,20.1,33.4,19.6,34.4z M18.9,5.8c-1.6-0.3-2.8-1.3-2.6-2.1c0.1-0.8,1.6-1.3,3.2-1C21.1,3,22.3,4,22.1,4.8
			C21.9,5.7,20.5,6.1,18.9,5.8z M20.4,19.6c0.4-1.2,1.7-1.8,3.1-1.3c1.3,0.5,2.1,1.8,1.8,3c-0.4,1.2-1.7,1.8-3.1,1.3
			C20.9,22.2,20.1,20.8,20.4,19.6z M28.1,85.5c-1.2,1.4-3.4,1.4-4.8,0c-1.4-1.4-1.7-3.7-0.5-5.1c1.2-1.4,3.4-1.4,4.8,0
			C29.1,81.8,29.3,84.1,28.1,85.5z M30.3,30.6c-0.6,1.4-2.3,1.9-3.6,1.2c-1.3-0.7-1.9-2.4-1.3-3.8c0.6-1.4,2.3-1.9,3.6-1.2
			C30.4,27.6,31,29.3,30.3,30.6z M30.3,18.9c-1.7-0.9-2.6-2.7-2-4s2.5-1.6,4.2-0.7c1.7,0.9,2.6,2.7,2,4C33.9,19.5,32,19.8,30.3,18.9
			z M40.1,102.6c-0.5,1.8-2.6,2.8-4.7,2.1c-2.2-0.6-3.5-2.6-3.1-4.4c0.5-1.8,2.6-2.8,4.7-2.1C39.2,98.8,40.6,100.8,40.1,102.6z
			 M44.1,90c-0.6,2.2-2.8,3.5-5,2.8c-2.2-0.6-3.5-2.9-3-5.1c0.6-2.2,2.8-3.5,5-2.8C43.3,85.5,44.7,87.8,44.1,90z M50.1,75.5
			c-0.6,2.4-2.9,3.9-5.2,3.2c-2.3-0.6-3.6-3.2-3-5.6c0.6-2.4,2.9-3.9,5.2-3.2C49.3,70.5,50.7,73,50.1,75.5z M49.9,55.9
			c-0.7-2.6,0.6-5.3,2.8-5.9c2.2-0.7,4.6,0.9,5.3,3.5c0.7,2.6-0.6,5.3-2.8,5.9C53,60.1,50.6,58.5,49.9,55.9z M54.5,79.8
			c0.4-2.7,2.6-4.6,4.9-4.2c2.3,0.4,3.7,3,3.3,5.7c-0.4,2.7-2.6,4.6-4.9,4.2C55.6,85.1,54.1,82.5,54.5,79.8z M60.7,45.5
			c2.2-1,4.8,0.5,5.9,3.3s0.2,5.8-2,6.7c-2.2,1-4.8-0.5-5.9-3.3C57.6,49.4,58.5,46.4,60.7,45.5z M64.9,90.6
			c-0.4,2.6-2.4,4.5-4.5,4.1s-3.4-2.8-2.9-5.5c0.4-2.6,2.4-4.5,4.5-4.1C64,85.5,65.4,87.9,64.9,90.6z M65.4,67.3
			c-2.2,0.3-4.3-1.8-4.7-4.8c-0.4-3,1.1-5.7,3.2-6c2.2-0.3,4.3,1.8,4.7,4.8C69,64.3,67.6,67,65.4,67.3z M76.2,58.8
			c0.3,3.2-1.1,5.9-3.1,6c-2,0.2-3.8-2.2-4-5.4c-0.3-3.2,1.1-5.9,3.1-6.1C74.1,53.2,75.9,55.6,76.2,58.8z M71,35.6
			c1.5,2.8,1.2,6-0.6,7.1c-1.8,1.1-4.5-0.4-5.9-3.2c-1.5-2.8-1.2-6,0.6-7.1C66.9,31.4,69.5,32.8,71,35.6z M59.3,22.4
			c1.5-1.4,4.3-0.6,6.2,1.8c1.9,2.4,2.2,5.4,0.7,6.8s-4.3,0.6-6.2-1.8C58,26.9,57.7,23.8,59.3,22.4z M57.6,28.1
			c1.6,2.1,1.7,4.9,0.2,6.3c-1.6,1.4-4.2,0.8-5.8-1.3c-1.6-2.1-1.7-4.9-0.2-6.3C53.3,25.3,55.9,25.9,57.6,28.1z"/>
		<path class="st0" d="M107,0H67c15.7,12.1,26,31.7,26,54c0,22.2-10.3,41.9-26,53.9h40.1c4.7,0,8.5-3.8,8.5-8.5V8.5
			C115.4,3.9,111.6,0,107,0z"/>
		<path class="st0" d="M61.6,105.3c0.2-0.4,0.4-0.8,0.7-1c-0.7-0.3-1.4-0.9-1.9-1.7c-0.2,0.9-0.6,1.7-1.2,2.3c0.1,0,0.1,0,0.2,0
			C60.1,104.6,60.9,104.9,61.6,105.3z"/>
		<path class="st0" d="M69.3,95.6c0.4,0.3,0.6,0.8,0.7,1.5c0.4-0.9,0.8-1.7,1.3-2.3c-0.3-0.3-0.6-0.8-0.7-1.5
			C70.3,94.3,69.9,95,69.3,95.6z"/>
		<path class="st0" d="M72.5,102.2l-0.1,0.1c0,0,0,0,0,0.1C72.4,102.3,72.5,102.2,72.5,102.2z"/>
		<path class="st0" d="M66.8,103.1L66.8,103.1c-0.4-0.1-0.6-0.3-0.7-0.5c-0.3,0.5-0.6,0.9-1,1.2c0.3,0.1,0.5,0.3,0.7,0.5
			C66.1,103.8,66.4,103.4,66.8,103.1z"/>
		<path class="st0" d="M71,83.9c-0.3,1.5-1,2.7-1.9,3.4c0.8,0.3,1.4,1.2,1.7,2.4c0-0.1,0-0.2,0.1-0.2c0.4-1.3,0.9-2.4,1.6-3.2
			C71.7,85.9,71.2,85,71,83.9z"/>
		<path class="st0" d="M80.3,16.7c-0.3-0.9-0.5-1.5-0.5-1.9c-0.3-0.1-0.7-0.2-1.1-0.5c0.1,0.3,0.1,0.6,0,0.9
			C79.2,15.6,79.7,16.1,80.3,16.7z"/>
		<path class="st0" d="M90.1,63.7c0.2-0.5,0.4-1,0.7-1.3c-0.2-0.4-0.3-0.9-0.4-1.4c-0.2,0.5-0.4,0.9-0.7,1.2
			C89.8,62.5,90,63,90.1,63.7z"/>
		<path class="st0" d="M80.7,73.8c0.6,0.3,0.9,1.2,1,2.4c0.4-1.1,0.9-2,1.4-2.5c-0.5-0.7-0.8-1.8-0.9-3.2
			C81.9,71.9,81.3,73.1,80.7,73.8z"/>
		<path class="st0" d="M80.7,84.1c-0.2-0.4-0.3-1-0.3-1.7c-0.4,0.8-0.8,1.5-1.3,1.9c0.3,0.3,0.4,0.8,0.5,1.4
			C80,85,80.3,84.4,80.7,84.1z"/>
		<path class="st0" d="M73.7,22.6c0.9,2.1,0.9,4.1-0.2,5c0,0-0.1,0-0.1,0.1c1.4,0.4,2.9,2,3.9,4.1c-0.6-2.5-0.4-4.6,0.5-5.3
			C76.6,26.1,75,24.6,73.7,22.6z"/>
		<path class="st0" d="M91.2,50c-0.4-0.4-0.6-1-0.8-1.7c-0.1,0.6-0.2,1.1-0.4,1.5c0.2,0.4,0.4,1,0.6,1.7
			C90.7,50.9,90.9,50.4,91.2,50z"/>
		<path class="st0" d="M73.2,15.4c1.1,0,2.6,1,4,2.7c-0.5-1.3-0.6-2.4-0.4-3c-0.8-0.5-1.8-1.3-2.9-2.5c0.4,1.1,0.5,2,0,2.4
			C73.7,15.3,73.5,15.3,73.2,15.4z"/>
		<path class="st0" d="M84.4,24.4c0.2,0.8,0.2,1.4,0,1.8c0.4,0.4,0.8,0.9,1.2,1.6c0-0.5,0-1,0.1-1.4C85.3,26,84.9,25.3,84.4,24.4z"
			/>
		<path class="st0" d="M72.5,15.6c0.1-0.1,0.2-0.1,0.3-0.1c-1.1,0-2.8-0.8-4.4-2.2c0.8,1.4,1.3,2.9,0.9,3.6
			c-0.2,0.3-0.4,0.6-0.8,0.8c1.3,0.4,2.7,1.4,3.9,3c0.1,0.1,0.2,0.3,0.3,0.5C71.6,18.6,71.4,16.3,72.5,15.6z"/>
		<path class="st0" d="M82.4,59.8c-0.3,1.3-0.8,2.4-1.5,3c0.8,0.5,1.4,1.8,1.6,3.5c0.3-1.6,0.9-3,1.5-3.8
			C83.3,62.1,82.8,61.1,82.4,59.8z"/>
		<path class="st0" d="M87.9,61.8c-0.3-0.5-0.6-1.1-0.8-1.9c-0.3,1-0.7,1.8-1.1,2.3c0.4,0.4,0.7,1,0.9,1.8
			C87.1,63,87.5,62.3,87.9,61.8z"/>
		<path class="st0" d="M85,73.5c0.3,0.3,0.4,0.9,0.4,1.6c0.3-0.7,0.6-1.3,0.9-1.6c-0.2-0.3-0.3-0.8-0.4-1.3
			C85.6,72.6,85.3,73.1,85,73.5z"/>
		<path class="st0" d="M87.9,74.4c0.2-0.3,0.3-0.5,0.5-0.6c0-0.3,0-0.7,0-1c-0.2,0.4-0.4,0.7-0.6,0.9C87.9,73.8,87.9,74.1,87.9,74.4
			z"/>
		<path class="st0" d="M89.6,38.5c-0.4-0.5-0.8-1.2-1.3-2.2c0,0.8-0.1,1.5-0.3,1.9c0.4,0.5,0.8,1.3,1.2,2.3
			C89.2,39.6,89.4,39,89.6,38.5z"/>
		<path class="st0" d="M85.7,50c0.5,0.6,1,1.6,1.3,2.8c0.2-1.3,0.6-2.4,1-3.1c-0.6-0.8-1.1-2-1.6-3.6C86.5,47.8,86.2,49.2,85.7,50z"
			/>
		<path class="st0" d="M83.2,84.1c0-0.4,0-0.9,0.1-1.6c-0.3,0.6-0.6,1.1-0.9,1.5c0.1,0.3,0.1,0.6,0.1,1.1
			C82.8,84.7,83,84.4,83.2,84.1z"/>
		<path class="st0" d="M84.8,84.7c0.1-0.3,0.1-0.6,0.2-0.9c-0.2,0.3-0.4,0.6-0.6,0.7c0,0.3,0,0.5,0,0.9
			C84.5,85.1,84.6,84.9,84.8,84.7z"/>
		<path class="st0" d="M57.3,0C57.3,0,57.4,0,57.3,0"/>
		<path class="st0" d="M66.9,0L66.9,0"/>
	</g>
	<g>
		<path class="st1" d="M180.2,15.6c3.5,2,6.3,4.9,8.3,8.7c2,3.7,2.9,8,2.9,12.9c0,4.8-1,9.1-3,12.8c-2,3.7-4.8,6.6-8.5,8.6
			s-7.9,3-12.7,3h-17.7c-0.4,0-0.6,0.2-0.6,0.6v31.6c0,0.4-0.1,0.7-0.4,1c-0.3,0.3-0.6,0.4-0.9,0.4h-10.1c-0.4,0-0.7-0.1-0.9-0.4
			c-0.3-0.3-0.4-0.6-0.4-1V13.9c0-0.4,0.1-0.7,0.4-1c0.3-0.3,0.6-0.4,0.9-0.4H168C172.6,12.5,176.7,13.5,180.2,15.6z M175.1,46.8
			c2.3-2.4,3.4-5.5,3.4-9.3c0-3.9-1.1-7.1-3.4-9.6c-2.3-2.4-5.3-3.7-9.1-3.7h-16.5c-0.4,0-0.6,0.2-0.6,0.6v25c0,0.4,0.2,0.6,0.6,0.6
			H166C169.8,50.4,172.9,49.2,175.1,46.8z"/>
		<path class="st1" d="M240,94.2l-14.6-34c-0.1-0.3-0.4-0.5-0.7-0.5h-13.3c-0.4,0-0.6,0.2-0.6,0.6v33.5c0,0.4-0.1,0.7-0.4,1
			c-0.3,0.3-0.6,0.4-0.9,0.4h-10.2c-0.4,0-0.7-0.1-0.9-0.4c-0.3-0.3-0.4-0.6-0.4-1V14c0-0.4,0.1-0.7,0.4-1c0.3-0.3,0.6-0.4,0.9-0.4
			h30.5c4.5,0,8.5,1,12,3s6.2,4.8,8.1,8.5s2.9,7.9,2.9,12.6c0,5.4-1.3,10.1-3.9,13.9s-6.3,6.5-10.9,8c-0.1,0-0.3,0.1-0.3,0.2
			c-0.1,0.2-0.1,0.3,0,0.5l15.6,34.4c0.1,0.3,0.2,0.6,0.2,0.7c0,0.6-0.4,0.9-1.2,0.9h-10.8C240.8,95.3,240.3,94.9,240,94.2z
			 M210.8,25v23.5c0,0.4,0.2,0.6,0.6,0.6H228c3.5,0,6.4-1.1,8.6-3.4c2.2-2.2,3.3-5.2,3.3-8.9c0-3.7-1.1-6.7-3.3-9
			c-2.2-2.3-5-3.4-8.6-3.4h-16.6C211,24.4,210.8,24.6,210.8,25z"/>
		<path class="st1" d="M304.6,52.9c7.5,3.8,11.3,10.3,11.3,19.5c0,7.5-2.3,13.2-7,17.1c-4.7,3.9-10.8,5.8-18.3,5.8h-27.9
			c-0.4,0-0.7-0.1-0.9-0.4c-0.3-0.3-0.4-0.6-0.4-1V14c0-0.4,0.1-0.7,0.4-1s0.6-0.4,0.9-0.4h27c8.1,0,14.3,1.9,18.6,5.5
			c4.4,3.7,6.5,9.3,6.5,16.8c0,8.3-3.4,14-10.2,17.2C304.2,52.4,304.2,52.6,304.6,52.9z M274.1,25v21.8c0,0.4,0.2,0.6,0.6,0.6h15
			c3.9,0,7-1,9.3-3s3.4-4.8,3.4-8.3c0-3.6-1.1-6.5-3.4-8.6s-5.3-3.1-9.3-3.1h-15C274.3,24.4,274.1,24.6,274.1,25z M299.7,80
			c2.3-2.2,3.4-5.2,3.4-9c0-3.9-1.1-6.9-3.4-9c-2.3-2.2-5.4-3.2-9.3-3.2h-15.6c-0.4,0-0.6,0.2-0.6,0.6v23.4c0,0.4,0.2,0.6,0.6,0.6
			h15.7C294.4,83.3,297.4,82.2,299.7,80z"/>
	</g>
</g>
</svg>
